<?xml version="1.0" encoding="UTF-8" standalone="no"?>
<!-- Created with Inkscape (http://www.inkscape.org/) -->

<svg
   xmlns:dc="http://purl.org/dc/elements/1.1/"
   xmlns:cc="http://creativecommons.org/ns#"
   xmlns:rdf="http://www.w3.org/1999/02/22-rdf-syntax-ns#"
   xmlns:svg="http://www.w3.org/2000/svg"
   xmlns="http://www.w3.org/2000/svg"
   xmlns:sodipodi="http://sodipodi.sourceforge.net/DTD/sodipodi-0.dtd"
   xmlns:inkscape="http://www.inkscape.org/namespaces/inkscape"
   width="210mm"
   height="297mm"
   viewBox="0 0 210 297"
   version="1.1"
   id="svg8"
   inkscape:version="0.92.3 (2405546, 2018-03-11)"
   sodipodi:docname="Development.svg">
  <sodipodi:namedview
     id="base"
     pagecolor="#ffffff"
     bordercolor="#666666"
     borderopacity="1.0"
     inkscape:pageopacity="0.0"
     inkscape:pageshadow="2"
     inkscape:zoom="0.7"
     inkscape:cx="311.61766"
     inkscape:cy="332.99457"
     inkscape:document-units="mm"
     inkscape:current-layer="g1044"
     showgrid="false"
     inkscape:measure-start="202.031,844.488"
     inkscape:measure-end="199,908.127"
     inkscape:window-width="1366"
     inkscape:window-height="705"
     inkscape:window-x="-8"
     inkscape:window-y="-8"
     inkscape:window-maximized="1" />
  <defs
     id="defs2">
    <inkscape:path-effect
       only_selected="false"
       apply_with_weight="true"
       apply_no_weight="true"
       helper_size="0"
       steps="2"
       weight="33.333333"
       is_visible="true"
       id="path-effect936"
       effect="bspline" />
    <inkscape:path-effect
       only_selected="false"
       apply_with_weight="true"
       apply_no_weight="true"
       helper_size="0"
       steps="2"
       weight="33.333333"
       is_visible="true"
       id="path-effect932"
       effect="bspline" />
  </defs>
  <metadata
     id="metadata5">
    <rdf:RDF>
      <cc:Work
         rdf:about="">
        <dc:format>image/svg+xml</dc:format>
        <dc:type
           rdf:resource="http://purl.org/dc/dcmitype/StillImage" />
        <dc:title></dc:title>
      </cc:Work>
    </rdf:RDF>
  </metadata>
  <g
     id="layer1"
     inkscape:groupmode="layer"
     inkscape:label="Layer 1">
    <path
       transform="scale(0.26458333)"
       inkscape:connector-curvature="0"
       id="path7370"
       d=""
       style="fill:#000000;fill-opacity:1;fill-rule:nonzero;stroke:#000000;stroke-width:1.13385832;stroke-miterlimit:4;stroke-dasharray:none;stroke-opacity:1" />
    <path
       transform="scale(0.26458333)"
       inkscape:connector-curvature="0"
       id="path7372"
       d=""
       style="fill:#000000;fill-opacity:1;fill-rule:nonzero;stroke:#000000;stroke-width:1.13385832;stroke-miterlimit:4;stroke-dasharray:none;stroke-opacity:1" />
    <g
       id="g931"
       transform="matrix(2.9432826,0,0,2.9103005,-183.12577,-55.042924)"
       style="stroke-width:0.3416765">
      <g
         id="g1106"
         transform="matrix(0.99440168,0,0,0.96194738,0.35203389,4.3414595)"
         style="stroke-width:0.34934819">
        <g
           id="g1044">
          <g
             style="stroke-width:0.35214147"
             transform="matrix(0.98419833,0,0,1,3.9381008,0.13501294)"
             id="g936">
            <path
               sodipodi:type="star"
               style="fill:none;fill-opacity:1;fill-rule:nonzero;stroke:#000000;stroke-width:0.24300291;stroke-miterlimit:4;stroke-dasharray:none;stroke-opacity:1"
               id="path950-5"
               sodipodi:sides="6"
               sodipodi:cx="32.60688"
               sodipodi:cy="52.448383"
               sodipodi:r1="14.392904"
               sodipodi:r2="12.46462"
               sodipodi:arg1="1.19029"
               sodipodi:arg2="1.7138887"
               inkscape:flatsided="true"
               inkscape:rounded="0"
               inkscape:randomized="0"
               d="m 37.95227,65.81186 -14.245805,-2.052495 -5.34539,-13.363477 8.900415,-11.310981 14.245805,2.052495 5.34539,13.363476 z"
               transform="matrix(0.01531834,-0.00409249,-0.02147166,0.00573645,81.119386,37.729397)"
               inkscape:transform-center-x="-1.3801219" />
            <flowRoot
               transform="matrix(0.58365243,0,0,0.78758972,-65.445505,-95.844035)"
               style="font-style:normal;font-weight:normal;font-size:40px;line-height:1.25;font-family:sans-serif;letter-spacing:0px;word-spacing:0px;fill:#0a50f3;fill-opacity:1;stroke:none;stroke-width:0.05193857;stroke-miterlimit:4;stroke-dasharray:none"
               id="flowRoot864"
               xml:space="preserve"><flowRegion
                 id="flowRegion866"
                 style="fill:#0a50f3;fill-opacity:1;stroke-width:0.05193857;stroke-miterlimit:4;stroke-dasharray:none"><rect
                   y="227.52454"
                   x="238.396"
                   height="47.47715"
                   width="88.89344"
                   id="rect868"
                   style="fill:#0a50f3;fill-opacity:1;stroke-width:0.05193857;stroke-miterlimit:4;stroke-dasharray:none" /></flowRegion><flowPara
                 id="flowPara870"
                 style="fill:#0a50f3;fill-opacity:1;stroke-width:0.05193857;stroke-miterlimit:4;stroke-dasharray:none">&lt;/&gt;</flowPara></flowRoot>            <g
               style="fill:none;fill-opacity:1;stroke:#0a50f3;stroke-width:0.30443734;stroke-miterlimit:4;stroke-dasharray:none;stroke-opacity:1"
               transform="matrix(-1.2310956,0.32521782,-0.32472667,-1.2292363,107.28406,42.267215)"
               inkscape:label="Gear9"
               id="g7494">
              <path
                 inkscape:connector-curvature="0"
                 d="M 5.7899,-1.11013 6.99522,-1.34124 7.4646,-1.31621 9.25186,-0.477 V 0.477 L 7.4646,1.31621 6.99522,1.34124 5.7899,1.11013 5.1489,2.87126 6.22078,3.46899 6.56426,3.78988 7.39394,5.58157 6.78072,6.31238 4.87217,5.80643 4.49652,5.52389 3.72174,4.57209 2.09867,5.50916 2.53557,6.65604 2.59243,7.12264 2.07632,9.02847 1.13681,9.19413 0,7.57975 -0.10615,7.12185 -0.08786,5.89471 -1.93354,5.56927 -2.33606,6.72865 -2.59243,7.12264 -4.21283,8.25084 -5.03902,7.77384 -4.87217,5.80643 -4.65915,5.38742 -3.85635,4.45913 -5.06104,3.02345 -6.11462,3.65286 -6.56426,3.78988 -8.53076,3.61256 -8.85704,2.71609 -7.4646,1.31621 -7.03208,1.13215 -5.82041,0.93708 v -1.87416 l -1.21167,-0.19507 -0.43252,-0.18406 -1.39244,-1.39988 0.32628,-0.89647 1.9665,-0.17732 0.44964,0.13702 1.05358,0.62941 1.20469,-1.43568 -0.8028,-0.92829 -0.21302,-0.41901 -0.16685,-1.96741 0.82619,-0.477 1.6204,1.1282 0.25637,0.39399 0.40252,1.15938 1.84568,-0.32544 L -0.10615,-7.12185 0,-7.57975 l 1.13681,-1.61438 0.93951,0.16566 0.51611,1.90583 -0.05686,0.4666 -0.4369,1.14688 1.62307,0.93707 0.77478,-0.9518 0.37565,-0.28254 1.90855,-0.50595 0.61322,0.73081 -0.82968,1.79169 -0.34348,0.32089 -1.07188,0.59773 z"
                 style="fill:none;fill-opacity:1;stroke:#0a50f3;stroke-width:0.30443734;stroke-miterlimit:4;stroke-dasharray:none;stroke-opacity:1"
                 id="path7490" />
              <circle
                 r="2.6458333"
                 cy="0"
                 cx="0"
                 style="fill:none;fill-opacity:1;stroke:#0a50f3;stroke-width:0.30443734;stroke-miterlimit:4;stroke-dasharray:none;stroke-opacity:1"
                 id="path7492" />
            </g>
            <g
               id="g7821"
               inkscape:label="Gear12"
               transform="matrix(-0.84198873,0.23412627,-0.20701012,-0.82484113,93.869413,63.145826)"
               style="fill:none;fill-opacity:1;stroke:#0a50f3;stroke-width:0.44938982;stroke-miterlimit:4;stroke-dasharray:none;stroke-opacity:1">
              <path
                 id="path7817"
                 style="fill:none;fill-opacity:1;stroke:#0a50f3;stroke-width:0.44938982;stroke-miterlimit:4;stroke-dasharray:none;stroke-opacity:1"
                 d="m 12.49888,-1.83541 1.59525,-0.23426 0.93569,0.09096 2.63888,1.19459 v 1.56824 l -2.63888,1.19459 -0.93569,0.09096 -1.59525,-0.23426 -0.75683,2.82452 1.49866,0.59475 0.76485,0.54661 1.68804,2.35399 -0.78411,1.35814 -2.88264,-0.2849 -0.85581,-0.38907 -1.2644,-1.0005 -2.06769,2.06769 1.0005,1.2644 0.38907,0.85581 0.2849,2.88264 L 8.15528,15.6936 5.80129,14.00556 5.25468,13.24071 4.65993,11.74205 1.83541,12.49888 2.06967,14.09413 1.97871,15.02982 0.78412,17.6687 h -1.56824 l -1.19459,-2.63888 -0.09096,-0.93569 0.23426,-1.59525 -2.82452,-0.75683 -0.59475,1.49866 -0.54661,0.76485 -2.35399,1.68804 -1.35814,-0.78411 0.2849,-2.88264 0.38907,-0.85581 1.0005,-1.2644 -2.06769,-2.06769 -1.2644,1.0005 -0.85581,0.38907 -2.88264,0.2849 -0.78411,-1.35814 1.68804,-2.35399 0.76485,-0.54661 1.49866,-0.59475 -0.75683,-2.82452 -1.59525,0.23426 -0.93569,-0.09096 -2.63888,-1.19459 v -1.56824 l 2.63888,-1.19459 0.93569,-0.09096 1.59525,0.23426 0.75683,-2.82452 -1.49866,-0.59475 -0.76485,-0.54661 -1.68804,-2.35399 0.78411,-1.35814 2.88264,0.2849 0.85581,0.38907 1.2644,1.0005 2.06769,-2.06769 -1.0005,-1.2644 -0.38907,-0.85581 -0.2849,-2.88264 1.35814,-0.78411 2.35399,1.68804 0.54661,0.76485 0.59475,1.49866 2.82452,-0.75683 -0.23426,-1.59525 0.09096,-0.93569 1.19459,-2.63888 h 1.56824 l 1.19459,2.63888 0.09096,0.93569 -0.23426,1.59525 2.82452,0.75683 0.59475,-1.49866 0.54661,-0.76485 2.35399,-1.68804 1.35814,0.78411 -0.2849,2.88264 -0.38907,0.85581 -1.0005,1.2644 2.06769,2.06769 1.2644,-1.0005 0.85581,-0.38907 2.88264,-0.2849 0.78411,1.35814 -1.68804,2.35399 -0.76485,0.54661 -1.49866,0.59475 z"
                 inkscape:connector-curvature="0" />
              <circle
                 id="path7819"
                 style="fill:none;fill-opacity:1;stroke:#0a50f3;stroke-width:0.44938982;stroke-miterlimit:4;stroke-dasharray:none;stroke-opacity:1"
                 cx="0"
                 cy="0"
                 r="2.6458333" />
            </g>
            <g
               id="g8032"
               inkscape:label="Gear7"
               transform="matrix(-0.83783279,-0.08583898,0.07114904,-0.78233267,74.79538,52.063887)"
               style="fill:none;fill-opacity:1;stroke:#0a50f3;stroke-width:0.47623533;stroke-miterlimit:4;stroke-dasharray:none;stroke-opacity:1">
              <path
                 id="path8028"
                 style="fill:none;fill-opacity:1;stroke:#0a50f3;stroke-width:0.47623533;stroke-miterlimit:4;stroke-dasharray:none;stroke-opacity:1"
                 d="m 6.13646,-1.49717 1.93648,-0.47246 0.54839,0.00187 2.73005,1.32384 V 0.64392 L 8.62133,1.96776 8.07294,1.96963 6.13646,1.49717 4.99656,3.86421 6.57332,5.08364 6.91377,5.51355 7.58091,8.47339 6.57403,9.27635 3.83685,7.96731 3.49348,7.53973 2.65549,5.73115 0.09414,6.31576 0.12385,8.30882 0,8.84305 -1.89814,11.21007 -3.1537,10.92349 -3.83685,7.96731 l 0.1202,-0.53505 0.89153,-1.7828 -2.05405,-1.63805 -1.53971,1.26588 -0.49489,0.23626 -3.03408,-0.00822 -0.55878,-1.1603 1.8853,-2.37727 0.49327,-0.23961 1.9497,-0.41454 v -2.62722 l -1.9497,-0.41454 -0.49327,-0.23961 -1.8853,-2.37727 0.55878,-1.1603 3.03408,-0.00822 0.49489,0.23626 1.53971,1.26588 2.05405,-1.63805 -0.89153,-1.7828 -0.1202,-0.53505 0.68315,-2.95618 1.25556,-0.28658 L 0,-8.84305 l 0.12385,0.53423 -0.02971,1.99306 2.56135,0.58461 0.83799,-1.80858 0.34337,-0.42758 2.73718,-1.30904 1.00688,0.80296 -0.66714,2.95984 -0.34045,0.42991 -1.57676,1.21943 z"
                 inkscape:connector-curvature="0" />
              <circle
                 id="path8030"
                 style="fill:none;fill-opacity:1;stroke:#0a50f3;stroke-width:0.47623533;stroke-miterlimit:4;stroke-dasharray:none;stroke-opacity:1"
                 cx="0"
                 cy="0"
                 r="2.6458333" />
            </g>
            <text
               xml:space="preserve"
               style="font-style:normal;font-weight:normal;font-size:6.21436214px;line-height:1.25;font-family:sans-serif;letter-spacing:0px;word-spacing:0px;fill:#0a50f3;fill-opacity:1;stroke:none;stroke-width:0.09317078"
               x="-2.6803043"
               y="130.1393"
               id="text1995"
               transform="matrix(0.98255166,-0.45980999,0.57009036,0.75096994,0,0)"><tspan
                 sodipodi:role="line"
                 id="tspan1993"
                 x="-2.6803043"
                 y="130.1393"
                 style="word-spacing:0px;fill:#0a50f3;fill-opacity:1;stroke-width:0.09317078">101001100</tspan></text>
            <text
               xml:space="preserve"
               style="font-style:normal;font-weight:normal;font-size:10.17649555px;line-height:1.25;font-family:sans-serif;letter-spacing:0px;word-spacing:0px;fill:#0a50f3;fill-opacity:1;stroke:none;stroke-width:0.09317078"
               x="91.63665"
               y="35.713867"
               id="text2007"
               transform="scale(0.96155862,1.0399782)"><tspan
                 sodipodi:role="line"
                 id="tspan2005"
                 x="91.63665"
                 y="35.713867"
                 style="fill:#0a50f3;fill-opacity:1;stroke-width:0.09317078">*</tspan></text>
            <text
               xml:space="preserve"
               style="font-style:normal;font-weight:normal;font-size:8.54269409px;line-height:1.25;font-family:sans-serif;letter-spacing:0px;word-spacing:0px;fill:#0a50f3;fill-opacity:1;stroke:none;stroke-width:0.09317078"
               x="81.190971"
               y="40.727776"
               id="text2011"
               transform="scale(0.95862314,1.0431628)"><tspan
                 sodipodi:role="line"
                 id="tspan2009"
                 x="81.190971"
                 y="40.727776"
                 style="fill:#0a50f3;fill-opacity:1;stroke-width:0.09317078">*</tspan></text>
            <text
               xml:space="preserve"
               style="font-style:normal;font-weight:normal;font-size:9.76631832px;line-height:1.25;font-family:sans-serif;letter-spacing:0px;word-spacing:0px;fill:#0a50f3;fill-opacity:1;stroke:none;stroke-width:0.09317078"
               x="85.377853"
               y="46.650986"
               id="text2015"
               transform="scale(1.0019432,0.99806056)"><tspan
                 sodipodi:role="line"
                 id="tspan2013"
                 x="85.377853"
                 y="46.650986"
                 style="fill:#0a50f3;fill-opacity:1;stroke-width:0.09317078">*</tspan></text>
            <text
               xml:space="preserve"
               style="font-style:normal;font-weight:normal;font-size:8.70985126px;line-height:1.25;font-family:sans-serif;letter-spacing:0px;word-spacing:0px;fill:#0a50f3;fill-opacity:1;stroke:none;stroke-width:0.09317078"
               x="125.25543"
               y="58.734798"
               id="text2019"
               transform="scale(0.93205514,1.0728979)"><tspan
                 sodipodi:role="line"
                 id="tspan2017"
                 x="125.25543"
                 y="58.734798"
                 style="fill:#0a50f3;fill-opacity:1;stroke-width:0.09317078">+</tspan></text>
            <text
               xml:space="preserve"
               style="font-style:normal;font-weight:normal;font-size:10.17649555px;line-height:1.25;font-family:sans-serif;letter-spacing:0px;word-spacing:0px;fill:#0a50f3;fill-opacity:1;stroke:none;stroke-width:0.09317078"
               x="74.91143"
               y="76.746719"
               id="text2023"
               transform="scale(0.96155862,1.0399782)"><tspan
                 sodipodi:role="line"
                 id="tspan2021"
                 x="74.91143"
                 y="76.746719"
                 style="fill:#0a50f3;fill-opacity:1;stroke-width:0.09317078">*</tspan></text>
            <text
               xml:space="preserve"
               style="font-style:normal;font-weight:normal;font-size:8.54269409px;line-height:1.25;font-family:sans-serif;letter-spacing:0px;word-spacing:0px;fill:#0a50f3;fill-opacity:1;stroke:none;stroke-width:0.09317078"
               x="115.14714"
               y="59.100918"
               id="text2027"
               transform="scale(0.95862314,1.0431628)"><tspan
                 sodipodi:role="line"
                 id="tspan2025"
                 x="115.14714"
                 y="59.100918"
                 style="fill:#0a50f3;fill-opacity:1;stroke-width:0.09317078">*</tspan></text>
            <text
               id="text898"
               y="91.864235"
               x="121.13266"
               style="font-style:normal;font-weight:normal;font-size:8.64538765px;line-height:1.25;font-family:sans-serif;letter-spacing:0px;word-spacing:0px;fill:#0a50f3;fill-opacity:1;stroke:none;stroke-width:0.09317078"
               xml:space="preserve"
               transform="scale(0.96076818,1.0408338)"><tspan
                 style="fill:#0a50f3;fill-opacity:1;stroke-width:0.09317078"
                 y="91.864235"
                 x="121.13266"
                 id="tspan896"
                 sodipodi:role="line">8</tspan></text>
            <g
               id="g2105"
               transform="matrix(0.88975473,0,0,0.89531536,9.0661784,6.9181368)"
               style="fill:#0a50f3;fill-opacity:1;stroke-width:0.39454269">
              <text
                 transform="scale(0.98876773,1.0113599)"
                 xml:space="preserve"
                 style="font-style:normal;font-weight:normal;font-size:9.88051319px;line-height:1.25;font-family:sans-serif;letter-spacing:0px;word-spacing:0px;fill:#0a50f3;fill-opacity:1;stroke:none;stroke-width:0.10438943"
                 x="121.99026"
                 y="72.550964"
                 id="text874"><tspan
                   sodipodi:role="line"
                   id="tspan872"
                   x="121.99026"
                   y="72.550964"
                   style="fill:#0a50f3;fill-opacity:1;stroke-width:0.10438943">1</tspan></text>
              <text
                 transform="scale(0.9887677,1.0113599)"
                 xml:space="preserve"
                 style="font-style:normal;font-weight:normal;font-size:9.88051319px;line-height:1.25;font-family:sans-serif;letter-spacing:0px;word-spacing:0px;fill:#0a50f3;fill-opacity:1;stroke:none;stroke-width:0.10438943"
                 x="128.61693"
                 y="77.657104"
                 id="text882"><tspan
                   sodipodi:role="line"
                   id="tspan880"
                   x="128.61693"
                   y="77.657104"
                   style="fill:#0a50f3;fill-opacity:1;stroke-width:0.10438943">3</tspan></text>
              <text
                 transform="scale(0.9887677,1.0113599)"
                 xml:space="preserve"
                 style="font-style:normal;font-weight:normal;font-size:9.88051319px;line-height:1.25;font-family:sans-serif;letter-spacing:0px;word-spacing:0px;fill:#0a50f3;fill-opacity:1;stroke:none;stroke-width:0.10438943"
                 x="124.47076"
                 y="86.187538"
                 id="text890"><tspan
                   sodipodi:role="line"
                   id="tspan888"
                   x="124.47076"
                   y="86.187538"
                   style="fill:#0a50f3;fill-opacity:1;stroke-width:0.10438943">6</tspan></text>
              <text
                 transform="scale(0.98876773,1.0113599)"
                 xml:space="preserve"
                 style="font-style:normal;font-weight:normal;font-size:9.88051319px;line-height:1.25;font-family:sans-serif;letter-spacing:0px;word-spacing:0px;fill:#0a50f3;fill-opacity:1;stroke:none;stroke-width:0.10438943"
                 x="129.82982"
                 y="93.903702"
                 id="text894"><tspan
                   sodipodi:role="line"
                   id="tspan892"
                   x="129.82982"
                   y="93.903702"
                   style="fill:#0a50f3;fill-opacity:1;stroke-width:0.10438943">7</tspan></text>
              <text
                 transform="scale(0.98876773,1.0113599)"
                 xml:space="preserve"
                 style="font-style:normal;font-weight:normal;font-size:9.88051319px;line-height:1.25;font-family:sans-serif;letter-spacing:0px;word-spacing:0px;fill:#0a50f3;fill-opacity:1;stroke:none;stroke-width:0.10438943"
                 x="117.41686"
                 y="82.905449"
                 id="text902"><tspan
                   sodipodi:role="line"
                   id="tspan900"
                   x="117.41686"
                   y="82.905449"
                   style="fill:#0a50f3;fill-opacity:1;stroke-width:0.10438943">0</tspan></text>
              <text
                 transform="scale(0.9887677,1.0113599)"
                 xml:space="preserve"
                 style="font-style:normal;font-weight:normal;font-size:9.88051319px;line-height:1.25;font-family:sans-serif;letter-spacing:0px;word-spacing:0px;fill:#0a50f3;fill-opacity:1;stroke:none;stroke-width:0.10438943"
                 x="114.13906"
                 y="93.518227"
                 id="text906"><tspan
                   sodipodi:role="line"
                   id="tspan904"
                   x="114.13906"
                   y="93.518227"
                   style="fill:#0a50f3;fill-opacity:1;stroke-width:0.10438943">9</tspan></text>
              <text
                 transform="scale(0.90629957,1.1033879)"
                 id="text2031"
                 y="67.411087"
                 x="124.90485"
                 style="font-style:normal;font-weight:normal;font-size:8.34107971px;line-height:1.25;font-family:sans-serif;letter-spacing:0px;word-spacing:0px;fill:#0a50f3;fill-opacity:1;stroke:none;stroke-width:0.10438941"
                 xml:space="preserve"><tspan
                   style="fill:#0a50f3;fill-opacity:1;stroke-width:0.10438941"
                   y="67.411087"
                   x="124.90485"
                   id="tspan2029"
                   sodipodi:role="line">*</tspan></text>
            </g>
            <text
               xml:space="preserve"
               style="font-style:normal;font-weight:normal;font-size:10.58333302px;line-height:1.25;font-family:sans-serif;letter-spacing:0px;word-spacing:0px;fill:#0a50f3;fill-opacity:1;stroke:none;stroke-width:0.09317078"
               x="65.692253"
               y="69.08036"
               id="text2069"><tspan
                 sodipodi:role="line"
                 id="tspan2067"
                 x="65.692253"
                 y="69.08036"
                 style="fill:#0a50f3;fill-opacity:1;stroke-width:0.09317078">$</tspan></text>
            <text
               xml:space="preserve"
               style="font-style:normal;font-weight:normal;font-size:6.54246283px;line-height:1.25;font-family:sans-serif;letter-spacing:0px;word-spacing:0px;fill:#0a50f3;fill-opacity:1;stroke:none;stroke-width:0.09317078"
               x="75.853729"
               y="82.08078"
               id="text2077"
               transform="scale(0.93371476,1.0709909)"><tspan
                 sodipodi:role="line"
                 id="tspan2075"
                 x="75.853729"
                 y="82.08078"
                 style="fill:#0a50f3;fill-opacity:1;stroke-width:0.09317078">[]</tspan></text>
            <text
               xml:space="preserve"
               style="font-style:normal;font-weight:normal;font-size:8.36987591px;line-height:1.25;font-family:sans-serif;letter-spacing:0px;word-spacing:0px;fill:#0a50f3;fill-opacity:1;stroke:none;stroke-width:0.09317078"
               x="77.050003"
               y="85.798889"
               id="text2081"
               transform="scale(1.0178262,0.98248601)"><tspan
                 sodipodi:role="line"
                 id="tspan2079"
                 x="77.050003"
                 y="85.798889"
                 style="fill:#0a50f3;fill-opacity:1;stroke-width:0.09317078">()</tspan></text>
            <text
               xml:space="preserve"
               style="font-style:normal;font-weight:normal;font-size:10.58333302px;line-height:1.25;font-family:sans-serif;letter-spacing:0px;word-spacing:0px;fill:#0a50f3;fill-opacity:1;stroke:none;stroke-width:0.09317078"
               x="105.80377"
               y="78.699066"
               id="text2085"><tspan
                 sodipodi:role="line"
                 id="tspan2083"
                 x="105.80377"
                 y="78.699066"
                 style="fill:#0a50f3;fill-opacity:1;stroke-width:0.09317078">-</tspan></text>
            <g
               id="g993"
               style="stroke-width:0.35214147">
              <text
                 transform="scale(0.95473897,1.0474067)"
                 id="text2073"
                 y="76.709816"
                 x="65.16983"
                 style="font-style:normal;font-weight:normal;font-size:8.20735168px;line-height:1.25;font-family:sans-serif;letter-spacing:0px;word-spacing:0px;fill:#0a50f3;fill-opacity:1;stroke:none;stroke-width:0.09317078"
                 xml:space="preserve"><tspan
                   style="fill:#0a50f3;fill-opacity:1;stroke-width:0.09317078"
                   y="76.709816"
                   x="65.16983"
                   id="tspan2071"
                   sodipodi:role="line">{}</tspan></text>
              <text
                 transform="scale(1.0443376,0.95754477)"
                 id="text2089"
                 y="93.458893"
                 x="61.078491"
                 style="font-style:normal;font-weight:normal;font-size:7.25209093px;line-height:1.25;font-family:sans-serif;letter-spacing:0px;word-spacing:0px;fill:#0a50f3;fill-opacity:1;stroke:none;stroke-width:0.09317078"
                 xml:space="preserve"><tspan
                   style="fill:#0a50f3;fill-opacity:1;stroke-width:0.09317078"
                   y="93.458893"
                   x="61.078491"
                   id="tspan2087"
                   sodipodi:role="line">#</tspan></text>
            </g>
          </g>
          <path
             inkscape:connector-curvature="0"
             id="path961"
             d="m 103.02364,88.023188 -7.877723,28.352712 1.937145,0.13501 8.006858,-28.217696 z"
             style="fill:#0a50f3;stroke:none;stroke-width:0.09243172px;stroke-linecap:butt;stroke-linejoin:miter;stroke-opacity:1;fill-opacity:1" />
          <path
             inkscape:connector-curvature="0"
             id="path965"
             d="m 92.304773,93.423704 -12.914293,7.965766 0.129143,1.48514 12.78515,7.83075 0.129143,-2.43023 -10.073148,-6.2106 10.073148,-6.07558 z"
             style="fill:#0a50f3;stroke:none;stroke-width:0.09243172px;stroke-linecap:butt;stroke-linejoin:miter;stroke-opacity:1;fill-opacity:1" />
          <path
             inkscape:connector-curvature="0"
             id="path965-2"
             d="m 108.92105,110.74979 12.89411,-8.00143 -0.13289,-1.48478 -12.80491,-7.795387 -0.123,2.430579 10.08882,6.182738 -10.05775,6.1034 z"
             style="fill:#0a50f3;stroke:none;stroke-width:0.09243172px;stroke-linecap:butt;stroke-linejoin:miter;stroke-opacity:1;fill-opacity:1" />
        </g>
      </g>
    </g>
  </g>
  <g
     inkscape:label="Layer 2"
     id="layer2"
     inkscape:groupmode="layer" />
  <g
     inkscape:label="Layer 3"
     id="layer3"
     inkscape:groupmode="layer" />
</svg>
