<?xml version="1.0" encoding="UTF-8" standalone="no"?>
<!-- Created with Inkscape (http://www.inkscape.org/) -->

<svg
   xmlns:dc="http://purl.org/dc/elements/1.1/"
   xmlns:cc="http://creativecommons.org/ns#"
   xmlns:rdf="http://www.w3.org/1999/02/22-rdf-syntax-ns#"
   xmlns:svg="http://www.w3.org/2000/svg"
   xmlns="http://www.w3.org/2000/svg"
   xmlns:sodipodi="http://sodipodi.sourceforge.net/DTD/sodipodi-0.dtd"
   xmlns:inkscape="http://www.inkscape.org/namespaces/inkscape"
   width="210mm"
   height="297mm"
   viewBox="0 0 210 297"
   version="1.1"
   id="svg8"
   sodipodi:docname="Logo.svg"
   inkscape:version="0.92.3 (2405546, 2018-03-11)">
  <defs
     id="defs2">
    <inkscape:path-effect
       effect="spiro"
       id="path-effect836"
       is_visible="true" />
    <inkscape:path-effect
       effect="spiro"
       id="path-effect832"
       is_visible="true" />
    <inkscape:path-effect
       effect="spiro"
       id="path-effect828"
       is_visible="true" />
    <inkscape:path-effect
       effect="spiro"
       id="path-effect824"
       is_visible="true" />
  </defs>
  <sodipodi:namedview
     id="base"
     pagecolor="#ffffff"
     bordercolor="#666666"
     borderopacity="1.0"
     inkscape:pageopacity="0.0"
     inkscape:pageshadow="2"
     inkscape:zoom="0.35"
     inkscape:cx="-126.44419"
     inkscape:cy="595.46233"
     inkscape:document-units="mm"
     inkscape:current-layer="layer1"
     showgrid="false"
     inkscape:window-width="1366"
     inkscape:window-height="705"
     inkscape:window-x="-8"
     inkscape:window-y="-8"
     inkscape:window-maximized="1" />
  <metadata
     id="metadata5">
    <rdf:RDF>
      <cc:Work
         rdf:about="">
        <dc:format>image/svg+xml</dc:format>
        <dc:type
           rdf:resource="http://purl.org/dc/dcmitype/StillImage" />
        <dc:title />
      </cc:Work>
    </rdf:RDF>
  </metadata>
  <g
     inkscape:label="Layer 1"
     inkscape:groupmode="layer"
     id="layer1">
    <g
       id="g846"
       transform="matrix(22.834426,0,0,23.498509,-1370.4577,-1093.4968)"
       style="stroke-width:0.60438382;stroke-miterlimit:4;stroke-dasharray:none;stroke:#0f0f0f;stroke-opacity:1;fill:none;fill-opacity:0.99494952">
      <g
         id="g841"
         style="stroke-width:0.60438382;stroke-miterlimit:4;stroke-dasharray:none;stroke:#0f0f0f;stroke-opacity:1;fill:none;fill-opacity:0.99494952">
        <path
           style="fill:none;fill-opacity:0.99494952;stroke:#ffffff;stroke-width:0.60438383;stroke-linecap:round;stroke-linejoin:miter;stroke-miterlimit:4;stroke-dasharray:none;stroke-opacity:1"
           d="m 66.818752,54.820397 c 0.481016,-0.457813 0.774534,-1.107109 0.800437,-1.770659 0.0043,-0.109882 0.0014,-0.221325 -0.02741,-0.327456 -0.02879,-0.10613 -0.08547,-0.207383 -0.173039,-0.273899 -0.09607,-0.07298 -0.223499,-0.09858 -0.342988,-0.08189 -0.119488,0.01669 -0.231158,0.07311 -0.325186,0.148703 -0.188617,0.151645 -0.30794,0.378831 -0.356324,0.615963 -0.04838,0.237132 -0.02992,0.484055 0.02224,0.720386 0.06635,0.300627 0.191238,0.595505 0.405184,0.816877 0.106974,0.110686 0.235409,0.201567 0.378235,0.258973 0.142826,0.05741 0.300165,0.0807 0.452703,0.06004 0.244913,-0.03316 0.464906,-0.177666 0.628579,-0.362851 0.163673,-0.185185 0.276613,-0.409386 0.373076,-0.636932 0.514353,-1.213307 0.595185,-2.616619 0.163206,-3.861635 -0.431979,-1.245017 -1.386579,-2.311905 -2.601438,-2.822581 -1.189894,-0.500182 -2.59974,-0.446085 -3.747807,0.143807 -1.148068,0.589891 -2.012964,1.704586 -2.299165,2.963204"
           id="path822"
           inkscape:connector-curvature="0"
           inkscape:path-effect="#path-effect824"
           inkscape:original-d="m 66.818752,54.820397 c 0.667983,-0.69071 0.132985,-1.080477 0.800437,-1.770659 0.667453,-0.690181 -0.133369,-0.401169 -0.200451,-0.601355 -0.06708,-0.200189 -0.445186,0.04428 -0.668174,0.06681 -0.222991,0.02254 -0.222462,0.890635 -0.334087,1.336349 -0.111627,0.445712 0.902299,0.712453 1.236122,1.135894 0.333822,0.423442 0.827955,-0.510095 1.001655,-0.999783 0.489729,-1.380627 -2.549328,-6.194486 -2.438232,-6.684216 0.111099,-0.489728 -1.63676,3.541058 -6.046972,3.107011"
           sodipodi:nodetypes="ccccccscc" />
      </g>
      <path
         sodipodi:nodetypes="cscccc"
         inkscape:connector-curvature="0"
         id="path838"
         d="m 66.818752,54.820397 c -0.149807,0.187077 -0.608591,0.24441 -0.742127,0.134059 -0.479477,-0.396225 -0.594799,-2.336359 0.0058,-5.813535 -0.593495,0.374044 -1.282248,1.575188 -1.83657,2.27179 -0.896275,-0.543755 -1.692007,-1.699594 -2.072249,-2.071338 0.223596,2.916594 0.128091,5.495846 -0.300676,5.813112"
         style="fill:none;fill-opacity:0.99494952;stroke:#ffffff;stroke-width:0.60438383;stroke-linecap:round;stroke-linejoin:round;stroke-miterlimit:4;stroke-dasharray:none;stroke-opacity:1" />
    </g>
  </g>
</svg>
